<?xml version="1.0" encoding="UTF-8" standalone="no"?> 
<!DOCTYPE svg PUBLIC "-//W3C//Dtd SVG 1.1//EN" "http://www.w3.org/Graphics/SVG/1.1/Dtd/svg11.dtd">
<svg width="672.0" height="924.0" version="1.1" xmlns="http://www.w3.org/2000/svg" xmlns:xlink="http://www.w3.org/1999/xlink">
<!-- Created by FidoCadJ ver. 0.24.7, export filter by Davide Bucci -->
<rect x="316.0" y="290.0" rx="0" ry="0" width="200.0" height="220.0" style="stroke:#000000;stroke-width:1.0;fill-rule: evenodd;" fill="none"/>
<ellipse cx="417.0" cy="88.0" rx="95.0" ry="82.0" style="stroke:#000000;stroke-width:1.0;fill-rule: evenodd;" fill="none"/>
<polygon points="316.0,630.0 516.0,630.0 416.0,760.0 416.0,760.0 " style="stroke:#000000;stroke-width:1.0;fill-rule: evenodd;" fill="none"/>
<g transform="translate(346.0,370.0) scale(1.5353535353535355,1) "><text x="0" y="18.0" font-family="Courier New" font-size="18.0" font-style="" font-weigth="" fill="#000000">Oscilator</text>
</g>
<g transform="translate(346.0,400.0) scale(1.5353535353535355,1) "><text x="0" y="18.0" font-family="Courier New" font-size="18.0" font-style="" font-weigth="" fill="#000000">Units</text>
</g>
<g transform="translate(380.0,76.0) scale(1.5353535353535355,1) "><text x="0" y="18.0" font-family="Courier New" font-size="18.0" font-style="" font-weigth="" fill="#000000">LM317</text>
</g>
<line x1="416.0" y1="170.0" x2="416.0" y2="290.0" style="stroke:#000000;stroke-width:1.0;fill-rule: evenodd;" fill="none"/>
<polygon points="416.0,290.0 406.0,280.0 426.0,280.0" style="stroke:#000000;stroke-width:1.0;fill-rule: evenodd;" fill="#000000"/>
<g transform="translate(390.0,666.0) scale(1.5353535353535355,1) "><text x="0" y="18.0" font-family="Courier New" font-size="18.0" font-style="" font-weigth="" fill="#000000">VCA</text>
</g>
<line x1="416.0" y1="510.0" x2="416.0" y2="630.0" style="stroke:#000000;stroke-width:1.0;fill-rule: evenodd;" fill="none"/>
<polygon points="416.0,630.0 406.0,620.0 426.0,620.0" style="stroke:#000000;stroke-width:1.0;fill-rule: evenodd;" fill="#000000"/>
<ellipse cx="76.0" cy="690.0" rx="70.0" ry="70.0" style="stroke:#000000;stroke-width:1.0;fill-rule: evenodd;" fill="none"/>
<g transform="translate(28.0,660.0) scale(1.5353535353535355,1) "><text x="0" y="18.0" font-family="Courier New" font-size="18.0" font-style="" font-weigth="" fill="#000000">Breath</text>
</g>
<g transform="translate(28.0,688.0) scale(1.5353535353535355,1) "><text x="0" y="18.0" font-family="Courier New" font-size="18.0" font-style="" font-weigth="" fill="#000000">Sensor</text>
</g>
<line x1="146.0" y1="690.0" x2="356.0" y2="690.0" style="stroke:#000000;stroke-width:1.0;fill-rule: evenodd;" fill="none"/>
<polygon points="356.0,690.0 346.0,700.0 346.0,680.0" style="stroke:#000000;stroke-width:1.0;fill-rule: evenodd;" fill="#000000"/>
<line x1="416.0" y1="570.0" x2="666.0" y2="570.0" style="stroke:#000000;stroke-width:1.0;fill-rule: evenodd;" fill="none"/>
<line x1="666.0" y1="570.0" x2="666.0" y2="80.0" style="stroke:#000000;stroke-width:1.0;fill-rule: evenodd;" fill="none"/>
<line x1="666.0" y1="80.0" x2="516.0" y2="80.0" style="stroke:#000000;stroke-width:1.0;fill-rule: evenodd;" fill="none"/>
<polygon points="516.0,80.0 526.0,70.0 526.0,90.0" style="stroke:#000000;stroke-width:1.0;fill-rule: evenodd;" fill="#000000"/>
<line x1="416.0" y1="760.0" x2="416.0" y2="860.0" style="stroke:#000000;stroke-width:1.0;fill-rule: evenodd;" fill="none"/>
<polygon points="416.0,860.0 406.0,850.0 426.0,850.0" style="stroke:#000000;stroke-width:1.0;fill-rule: evenodd;" fill="#000000"/>
<g transform="translate(374.0,870.0) scale(1.5353535353535355,1) "><text x="0" y="18.0" font-family="Courier New" font-size="18.0" font-style="" font-weigth="" fill="#000000">audio</text>
</g>
<g transform="translate(392.0,894.0) scale(1.5353535353535355,1) "><text x="0" y="18.0" font-family="Courier New" font-size="18.0" font-style="" font-weigth="" fill="#000000">out</text>
</g>
</svg>