<?xml version="1.0" encoding="UTF-8" standalone="no"?> 
<!DOCTYPE svg PUBLIC "-//W3C//Dtd SVG 1.1//EN" "http://www.w3.org/Graphics/SVG/1.1/Dtd/svg11.dtd">
<svg width="786.0" height="470.0" version="1.1" xmlns="http://www.w3.org/2000/svg" xmlns:xlink="http://www.w3.org/1999/xlink">
<!-- Created by FidoCadJ ver. 0.24.7, export filter by Davide Bucci -->
<ellipse cx="171.0" cy="231.0" rx="165.0" ry="155.0" style="stroke:#000000;stroke-width:1.0;fill-rule: evenodd;" fill="none"/>
<g transform="translate(560.0,210.0) scale(1.5353535353535355,1) "><text x="0" y="18.0" font-family="Courier New" font-size="18.0" font-style="" font-weigth="" fill="#000000">oscilator</text>
</g>
<rect x="490.0" y="90.0" rx="0" ry="0" width="290.0" height="280.0" style="stroke:#000000;stroke-width:1.0;fill-rule: evenodd;" fill="none"/>
<g transform="translate(66.0,216.0) scale(1.5353535353535355,1) "><text x="0" y="18.0" font-family="Courier New" font-size="18.0" font-style="" font-weigth="" fill="#000000">Power Supply</text>
</g>
<line x1="630.0" y1="380.0" x2="626.75" y2="384.36" style="stroke:#000000;stroke-width:1.0;fill-rule: evenodd;" fill="none"/>
<line x1="626.75" y1="384.36" x2="623.48" y2="388.71" style="stroke:#000000;stroke-width:1.0;fill-rule: evenodd;" fill="none"/>
<line x1="623.48" y1="388.71" x2="620.19" y2="393.04" style="stroke:#000000;stroke-width:1.0;fill-rule: evenodd;" fill="none"/>
<line x1="620.19" y1="393.04" x2="616.85" y2="397.33" style="stroke:#000000;stroke-width:1.0;fill-rule: evenodd;" fill="none"/>
<line x1="616.85" y1="397.33" x2="613.46" y2="401.58" style="stroke:#000000;stroke-width:1.0;fill-rule: evenodd;" fill="none"/>
<line x1="613.46" y1="401.58" x2="610.0" y2="405.78" style="stroke:#000000;stroke-width:1.0;fill-rule: evenodd;" fill="none"/>
<line x1="610.0" y1="405.78" x2="606.46" y2="409.92" style="stroke:#000000;stroke-width:1.0;fill-rule: evenodd;" fill="none"/>
<line x1="606.46" y1="409.92" x2="602.81" y2="413.98" style="stroke:#000000;stroke-width:1.0;fill-rule: evenodd;" fill="none"/>
<line x1="602.81" y1="413.98" x2="599.06" y2="417.95" style="stroke:#000000;stroke-width:1.0;fill-rule: evenodd;" fill="none"/>
<line x1="599.06" y1="417.95" x2="595.19" y2="421.83" style="stroke:#000000;stroke-width:1.0;fill-rule: evenodd;" fill="none"/>
<line x1="595.19" y1="421.83" x2="591.17" y2="425.6" style="stroke:#000000;stroke-width:1.0;fill-rule: evenodd;" fill="none"/>
<line x1="591.17" y1="425.6" x2="587.0" y2="429.25" style="stroke:#000000;stroke-width:1.0;fill-rule: evenodd;" fill="none"/>
<line x1="587.0" y1="429.25" x2="582.66" y2="432.77" style="stroke:#000000;stroke-width:1.0;fill-rule: evenodd;" fill="none"/>
<line x1="582.66" y1="432.77" x2="578.15" y2="436.16" style="stroke:#000000;stroke-width:1.0;fill-rule: evenodd;" fill="none"/>
<line x1="578.15" y1="436.16" x2="573.44" y2="439.39" style="stroke:#000000;stroke-width:1.0;fill-rule: evenodd;" fill="none"/>
<line x1="573.44" y1="439.39" x2="568.52" y2="442.47" style="stroke:#000000;stroke-width:1.0;fill-rule: evenodd;" fill="none"/>
<line x1="568.52" y1="442.47" x2="563.38" y2="445.37" style="stroke:#000000;stroke-width:1.0;fill-rule: evenodd;" fill="none"/>
<line x1="563.38" y1="445.37" x2="558.0" y2="448.09" style="stroke:#000000;stroke-width:1.0;fill-rule: evenodd;" fill="none"/>
<line x1="558.0" y1="448.09" x2="552.37" y2="450.62" style="stroke:#000000;stroke-width:1.0;fill-rule: evenodd;" fill="none"/>
<line x1="552.37" y1="450.62" x2="546.48" y2="452.95" style="stroke:#000000;stroke-width:1.0;fill-rule: evenodd;" fill="none"/>
<line x1="546.48" y1="452.95" x2="540.31" y2="455.06" style="stroke:#000000;stroke-width:1.0;fill-rule: evenodd;" fill="none"/>
<line x1="540.31" y1="455.06" x2="533.85" y2="456.94" style="stroke:#000000;stroke-width:1.0;fill-rule: evenodd;" fill="none"/>
<line x1="533.85" y1="456.94" x2="527.09" y2="458.6" style="stroke:#000000;stroke-width:1.0;fill-rule: evenodd;" fill="none"/>
<line x1="527.09" y1="458.6" x2="520.0" y2="460.0" style="stroke:#000000;stroke-width:1.0;fill-rule: evenodd;" fill="none"/>
<line x1="520.0" y1="460.0" x2="512.59" y2="461.15" style="stroke:#000000;stroke-width:1.0;fill-rule: evenodd;" fill="none"/>
<line x1="512.59" y1="461.15" x2="504.87" y2="462.06" style="stroke:#000000;stroke-width:1.0;fill-rule: evenodd;" fill="none"/>
<line x1="504.87" y1="462.06" x2="496.89" y2="462.72" style="stroke:#000000;stroke-width:1.0;fill-rule: evenodd;" fill="none"/>
<line x1="496.89" y1="462.72" x2="488.66" y2="463.16" style="stroke:#000000;stroke-width:1.0;fill-rule: evenodd;" fill="none"/>
<line x1="488.66" y1="463.16" x2="480.22" y2="463.39" style="stroke:#000000;stroke-width:1.0;fill-rule: evenodd;" fill="none"/>
<line x1="480.22" y1="463.39" x2="471.59" y2="463.41" style="stroke:#000000;stroke-width:1.0;fill-rule: evenodd;" fill="none"/>
<line x1="471.59" y1="463.41" x2="462.82" y2="463.23" style="stroke:#000000;stroke-width:1.0;fill-rule: evenodd;" fill="none"/>
<line x1="462.82" y1="463.23" x2="453.93" y2="462.86" style="stroke:#000000;stroke-width:1.0;fill-rule: evenodd;" fill="none"/>
<line x1="453.93" y1="462.86" x2="444.94" y2="462.32" style="stroke:#000000;stroke-width:1.0;fill-rule: evenodd;" fill="none"/>
<line x1="444.94" y1="462.32" x2="435.9" y2="461.62" style="stroke:#000000;stroke-width:1.0;fill-rule: evenodd;" fill="none"/>
<line x1="435.9" y1="461.62" x2="426.82" y2="460.76" style="stroke:#000000;stroke-width:1.0;fill-rule: evenodd;" fill="none"/>
<line x1="426.82" y1="460.76" x2="417.75" y2="459.75" style="stroke:#000000;stroke-width:1.0;fill-rule: evenodd;" fill="none"/>
<line x1="417.75" y1="459.75" x2="408.71" y2="458.61" style="stroke:#000000;stroke-width:1.0;fill-rule: evenodd;" fill="none"/>
<line x1="408.71" y1="458.61" x2="399.73" y2="457.34" style="stroke:#000000;stroke-width:1.0;fill-rule: evenodd;" fill="none"/>
<line x1="399.73" y1="457.34" x2="390.84" y2="455.96" style="stroke:#000000;stroke-width:1.0;fill-rule: evenodd;" fill="none"/>
<line x1="390.84" y1="455.96" x2="382.07" y2="454.47" style="stroke:#000000;stroke-width:1.0;fill-rule: evenodd;" fill="none"/>
<line x1="382.07" y1="454.47" x2="373.46" y2="452.89" style="stroke:#000000;stroke-width:1.0;fill-rule: evenodd;" fill="none"/>
<line x1="373.46" y1="452.89" x2="365.03" y2="451.22" style="stroke:#000000;stroke-width:1.0;fill-rule: evenodd;" fill="none"/>
<line x1="365.03" y1="451.22" x2="356.81" y2="449.48" style="stroke:#000000;stroke-width:1.0;fill-rule: evenodd;" fill="none"/>
<line x1="356.81" y1="449.48" x2="348.84" y2="447.67" style="stroke:#000000;stroke-width:1.0;fill-rule: evenodd;" fill="none"/>
<line x1="348.84" y1="447.67" x2="341.14" y2="445.81" style="stroke:#000000;stroke-width:1.0;fill-rule: evenodd;" fill="none"/>
<line x1="341.14" y1="445.81" x2="333.75" y2="443.9" style="stroke:#000000;stroke-width:1.0;fill-rule: evenodd;" fill="none"/>
<line x1="333.75" y1="443.9" x2="326.69" y2="441.96" style="stroke:#000000;stroke-width:1.0;fill-rule: evenodd;" fill="none"/>
<line x1="326.69" y1="441.96" x2="320.0" y2="440.0" style="stroke:#000000;stroke-width:1.0;fill-rule: evenodd;" fill="none"/>
<line x1="320.0" y1="440.0" x2="313.7" y2="438.02" style="stroke:#000000;stroke-width:1.0;fill-rule: evenodd;" fill="none"/>
<line x1="313.7" y1="438.02" x2="307.77" y2="436.03" style="stroke:#000000;stroke-width:1.0;fill-rule: evenodd;" fill="none"/>
<line x1="307.77" y1="436.03" x2="302.21" y2="434.02" style="stroke:#000000;stroke-width:1.0;fill-rule: evenodd;" fill="none"/>
<line x1="302.21" y1="434.02" x2="296.99" y2="432.01" style="stroke:#000000;stroke-width:1.0;fill-rule: evenodd;" fill="none"/>
<line x1="296.99" y1="432.01" x2="292.1" y2="429.98" style="stroke:#000000;stroke-width:1.0;fill-rule: evenodd;" fill="none"/>
<line x1="292.1" y1="429.98" x2="287.53" y2="427.94" style="stroke:#000000;stroke-width:1.0;fill-rule: evenodd;" fill="none"/>
<line x1="287.53" y1="427.94" x2="283.26" y2="425.89" style="stroke:#000000;stroke-width:1.0;fill-rule: evenodd;" fill="none"/>
<line x1="283.26" y1="425.89" x2="279.26" y2="423.83" style="stroke:#000000;stroke-width:1.0;fill-rule: evenodd;" fill="none"/>
<line x1="279.26" y1="423.83" x2="275.53" y2="421.76" style="stroke:#000000;stroke-width:1.0;fill-rule: evenodd;" fill="none"/>
<line x1="275.53" y1="421.76" x2="272.04" y2="419.68" style="stroke:#000000;stroke-width:1.0;fill-rule: evenodd;" fill="none"/>
<line x1="272.04" y1="419.68" x2="268.79" y2="417.59" style="stroke:#000000;stroke-width:1.0;fill-rule: evenodd;" fill="none"/>
<line x1="268.79" y1="417.59" x2="265.75" y2="415.5" style="stroke:#000000;stroke-width:1.0;fill-rule: evenodd;" fill="none"/>
<line x1="265.75" y1="415.5" x2="262.91" y2="413.4" style="stroke:#000000;stroke-width:1.0;fill-rule: evenodd;" fill="none"/>
<line x1="262.91" y1="413.4" x2="260.25" y2="411.29" style="stroke:#000000;stroke-width:1.0;fill-rule: evenodd;" fill="none"/>
<line x1="260.25" y1="411.29" x2="257.75" y2="409.18" style="stroke:#000000;stroke-width:1.0;fill-rule: evenodd;" fill="none"/>
<line x1="257.75" y1="409.18" x2="255.41" y2="407.06" style="stroke:#000000;stroke-width:1.0;fill-rule: evenodd;" fill="none"/>
<line x1="255.41" y1="407.06" x2="253.19" y2="404.94" style="stroke:#000000;stroke-width:1.0;fill-rule: evenodd;" fill="none"/>
<line x1="253.19" y1="404.94" x2="251.09" y2="402.81" style="stroke:#000000;stroke-width:1.0;fill-rule: evenodd;" fill="none"/>
<line x1="251.09" y1="402.81" x2="249.09" y2="400.68" style="stroke:#000000;stroke-width:1.0;fill-rule: evenodd;" fill="none"/>
<line x1="249.09" y1="400.68" x2="247.18" y2="398.55" style="stroke:#000000;stroke-width:1.0;fill-rule: evenodd;" fill="none"/>
<line x1="247.18" y1="398.55" x2="245.32" y2="396.41" style="stroke:#000000;stroke-width:1.0;fill-rule: evenodd;" fill="none"/>
<line x1="245.32" y1="396.41" x2="243.52" y2="394.28" style="stroke:#000000;stroke-width:1.0;fill-rule: evenodd;" fill="none"/>
<line x1="243.52" y1="394.28" x2="241.75" y2="392.14" style="stroke:#000000;stroke-width:1.0;fill-rule: evenodd;" fill="none"/>
<line x1="241.75" y1="392.14" x2="240.0" y2="390.0" style="stroke:#000000;stroke-width:1.0;fill-rule: evenodd;" fill="none"/>
<polygon points="630.0,380.0 632.04,393.99 616.01,382.04" style="stroke:#000000;stroke-width:1.0;fill-rule: evenodd;" fill="#000000"/>
<g transform="translate(370.0,420.0) scale(1.4393939393939394,1) "><text x="0" y="12.0" font-family="Courier New" font-size="12.0" font-style="" font-weigth="" fill="#000000">Power the circuit</text>
</g>
<line x1="260.0" y1="90.0" x2="263.25" y2="85.64" style="stroke:#000000;stroke-width:1.0;fill-rule: evenodd;" fill="none"/>
<line x1="263.25" y1="85.64" x2="266.52" y2="81.29" style="stroke:#000000;stroke-width:1.0;fill-rule: evenodd;" fill="none"/>
<line x1="266.52" y1="81.29" x2="269.81" y2="76.96" style="stroke:#000000;stroke-width:1.0;fill-rule: evenodd;" fill="none"/>
<line x1="269.81" y1="76.96" x2="273.15" y2="72.67" style="stroke:#000000;stroke-width:1.0;fill-rule: evenodd;" fill="none"/>
<line x1="273.15" y1="72.67" x2="276.54" y2="68.42" style="stroke:#000000;stroke-width:1.0;fill-rule: evenodd;" fill="none"/>
<line x1="276.54" y1="68.42" x2="280.0" y2="64.22" style="stroke:#000000;stroke-width:1.0;fill-rule: evenodd;" fill="none"/>
<line x1="280.0" y1="64.22" x2="283.54" y2="60.08" style="stroke:#000000;stroke-width:1.0;fill-rule: evenodd;" fill="none"/>
<line x1="283.54" y1="60.08" x2="287.19" y2="56.02" style="stroke:#000000;stroke-width:1.0;fill-rule: evenodd;" fill="none"/>
<line x1="287.19" y1="56.02" x2="290.94" y2="52.05" style="stroke:#000000;stroke-width:1.0;fill-rule: evenodd;" fill="none"/>
<line x1="290.94" y1="52.05" x2="294.81" y2="48.17" style="stroke:#000000;stroke-width:1.0;fill-rule: evenodd;" fill="none"/>
<line x1="294.81" y1="48.17" x2="298.83" y2="44.4" style="stroke:#000000;stroke-width:1.0;fill-rule: evenodd;" fill="none"/>
<line x1="298.83" y1="44.4" x2="303.0" y2="40.75" style="stroke:#000000;stroke-width:1.0;fill-rule: evenodd;" fill="none"/>
<line x1="303.0" y1="40.75" x2="307.34" y2="37.23" style="stroke:#000000;stroke-width:1.0;fill-rule: evenodd;" fill="none"/>
<line x1="307.34" y1="37.23" x2="311.85" y2="33.84" style="stroke:#000000;stroke-width:1.0;fill-rule: evenodd;" fill="none"/>
<line x1="311.85" y1="33.84" x2="316.56" y2="30.61" style="stroke:#000000;stroke-width:1.0;fill-rule: evenodd;" fill="none"/>
<line x1="316.56" y1="30.61" x2="321.48" y2="27.53" style="stroke:#000000;stroke-width:1.0;fill-rule: evenodd;" fill="none"/>
<line x1="321.48" y1="27.53" x2="326.62" y2="24.63" style="stroke:#000000;stroke-width:1.0;fill-rule: evenodd;" fill="none"/>
<line x1="326.62" y1="24.63" x2="332.0" y2="21.91" style="stroke:#000000;stroke-width:1.0;fill-rule: evenodd;" fill="none"/>
<line x1="332.0" y1="21.91" x2="337.63" y2="19.38" style="stroke:#000000;stroke-width:1.0;fill-rule: evenodd;" fill="none"/>
<line x1="337.63" y1="19.38" x2="343.52" y2="17.05" style="stroke:#000000;stroke-width:1.0;fill-rule: evenodd;" fill="none"/>
<line x1="343.52" y1="17.05" x2="349.69" y2="14.94" style="stroke:#000000;stroke-width:1.0;fill-rule: evenodd;" fill="none"/>
<line x1="349.69" y1="14.94" x2="356.15" y2="13.06" style="stroke:#000000;stroke-width:1.0;fill-rule: evenodd;" fill="none"/>
<line x1="356.15" y1="13.06" x2="362.91" y2="11.4" style="stroke:#000000;stroke-width:1.0;fill-rule: evenodd;" fill="none"/>
<line x1="362.91" y1="11.4" x2="370.0" y2="10.0" style="stroke:#000000;stroke-width:1.0;fill-rule: evenodd;" fill="none"/>
<line x1="370.0" y1="10.0" x2="377.41" y2="8.85" style="stroke:#000000;stroke-width:1.0;fill-rule: evenodd;" fill="none"/>
<line x1="377.41" y1="8.85" x2="385.13" y2="7.94" style="stroke:#000000;stroke-width:1.0;fill-rule: evenodd;" fill="none"/>
<line x1="385.13" y1="7.94" x2="393.11" y2="7.28" style="stroke:#000000;stroke-width:1.0;fill-rule: evenodd;" fill="none"/>
<line x1="393.11" y1="7.28" x2="401.34" y2="6.84" style="stroke:#000000;stroke-width:1.0;fill-rule: evenodd;" fill="none"/>
<line x1="401.34" y1="6.84" x2="409.78" y2="6.61" style="stroke:#000000;stroke-width:1.0;fill-rule: evenodd;" fill="none"/>
<line x1="409.78" y1="6.61" x2="418.41" y2="6.59" style="stroke:#000000;stroke-width:1.0;fill-rule: evenodd;" fill="none"/>
<line x1="418.41" y1="6.59" x2="427.18" y2="6.77" style="stroke:#000000;stroke-width:1.0;fill-rule: evenodd;" fill="none"/>
<line x1="427.18" y1="6.77" x2="436.07" y2="7.14" style="stroke:#000000;stroke-width:1.0;fill-rule: evenodd;" fill="none"/>
<line x1="436.07" y1="7.14" x2="445.06" y2="7.68" style="stroke:#000000;stroke-width:1.0;fill-rule: evenodd;" fill="none"/>
<line x1="445.06" y1="7.68" x2="454.1" y2="8.38" style="stroke:#000000;stroke-width:1.0;fill-rule: evenodd;" fill="none"/>
<line x1="454.1" y1="8.38" x2="463.18" y2="9.24" style="stroke:#000000;stroke-width:1.0;fill-rule: evenodd;" fill="none"/>
<line x1="463.18" y1="9.24" x2="472.25" y2="10.25" style="stroke:#000000;stroke-width:1.0;fill-rule: evenodd;" fill="none"/>
<line x1="472.25" y1="10.25" x2="481.29" y2="11.39" style="stroke:#000000;stroke-width:1.0;fill-rule: evenodd;" fill="none"/>
<line x1="481.29" y1="11.39" x2="490.27" y2="12.66" style="stroke:#000000;stroke-width:1.0;fill-rule: evenodd;" fill="none"/>
<line x1="490.27" y1="12.66" x2="499.16" y2="14.04" style="stroke:#000000;stroke-width:1.0;fill-rule: evenodd;" fill="none"/>
<line x1="499.16" y1="14.04" x2="507.93" y2="15.53" style="stroke:#000000;stroke-width:1.0;fill-rule: evenodd;" fill="none"/>
<line x1="507.93" y1="15.53" x2="516.54" y2="17.11" style="stroke:#000000;stroke-width:1.0;fill-rule: evenodd;" fill="none"/>
<line x1="516.54" y1="17.11" x2="524.97" y2="18.78" style="stroke:#000000;stroke-width:1.0;fill-rule: evenodd;" fill="none"/>
<line x1="524.97" y1="18.78" x2="533.19" y2="20.52" style="stroke:#000000;stroke-width:1.0;fill-rule: evenodd;" fill="none"/>
<line x1="533.19" y1="20.52" x2="541.16" y2="22.33" style="stroke:#000000;stroke-width:1.0;fill-rule: evenodd;" fill="none"/>
<line x1="541.16" y1="22.33" x2="548.86" y2="24.19" style="stroke:#000000;stroke-width:1.0;fill-rule: evenodd;" fill="none"/>
<line x1="548.86" y1="24.19" x2="556.25" y2="26.1" style="stroke:#000000;stroke-width:1.0;fill-rule: evenodd;" fill="none"/>
<line x1="556.25" y1="26.1" x2="563.31" y2="28.04" style="stroke:#000000;stroke-width:1.0;fill-rule: evenodd;" fill="none"/>
<line x1="563.31" y1="28.04" x2="570.0" y2="30.0" style="stroke:#000000;stroke-width:1.0;fill-rule: evenodd;" fill="none"/>
<line x1="570.0" y1="30.0" x2="576.3" y2="31.98" style="stroke:#000000;stroke-width:1.0;fill-rule: evenodd;" fill="none"/>
<line x1="576.3" y1="31.98" x2="582.23" y2="33.97" style="stroke:#000000;stroke-width:1.0;fill-rule: evenodd;" fill="none"/>
<line x1="582.23" y1="33.97" x2="587.79" y2="35.98" style="stroke:#000000;stroke-width:1.0;fill-rule: evenodd;" fill="none"/>
<line x1="587.79" y1="35.98" x2="593.01" y2="37.99" style="stroke:#000000;stroke-width:1.0;fill-rule: evenodd;" fill="none"/>
<line x1="593.01" y1="37.99" x2="597.9" y2="40.02" style="stroke:#000000;stroke-width:1.0;fill-rule: evenodd;" fill="none"/>
<line x1="597.9" y1="40.02" x2="602.47" y2="42.06" style="stroke:#000000;stroke-width:1.0;fill-rule: evenodd;" fill="none"/>
<line x1="602.47" y1="42.06" x2="606.74" y2="44.11" style="stroke:#000000;stroke-width:1.0;fill-rule: evenodd;" fill="none"/>
<line x1="606.74" y1="44.11" x2="610.74" y2="46.17" style="stroke:#000000;stroke-width:1.0;fill-rule: evenodd;" fill="none"/>
<line x1="610.74" y1="46.17" x2="614.47" y2="48.24" style="stroke:#000000;stroke-width:1.0;fill-rule: evenodd;" fill="none"/>
<line x1="614.47" y1="48.24" x2="617.96" y2="50.32" style="stroke:#000000;stroke-width:1.0;fill-rule: evenodd;" fill="none"/>
<line x1="617.96" y1="50.32" x2="621.21" y2="52.41" style="stroke:#000000;stroke-width:1.0;fill-rule: evenodd;" fill="none"/>
<line x1="621.21" y1="52.41" x2="624.25" y2="54.5" style="stroke:#000000;stroke-width:1.0;fill-rule: evenodd;" fill="none"/>
<line x1="624.25" y1="54.5" x2="627.09" y2="56.6" style="stroke:#000000;stroke-width:1.0;fill-rule: evenodd;" fill="none"/>
<line x1="627.09" y1="56.6" x2="629.75" y2="58.71" style="stroke:#000000;stroke-width:1.0;fill-rule: evenodd;" fill="none"/>
<line x1="629.75" y1="58.71" x2="632.25" y2="60.82" style="stroke:#000000;stroke-width:1.0;fill-rule: evenodd;" fill="none"/>
<line x1="632.25" y1="60.82" x2="634.59" y2="62.94" style="stroke:#000000;stroke-width:1.0;fill-rule: evenodd;" fill="none"/>
<line x1="634.59" y1="62.94" x2="636.81" y2="65.06" style="stroke:#000000;stroke-width:1.0;fill-rule: evenodd;" fill="none"/>
<line x1="636.81" y1="65.06" x2="638.91" y2="67.19" style="stroke:#000000;stroke-width:1.0;fill-rule: evenodd;" fill="none"/>
<line x1="638.91" y1="67.19" x2="640.91" y2="69.32" style="stroke:#000000;stroke-width:1.0;fill-rule: evenodd;" fill="none"/>
<line x1="640.91" y1="69.32" x2="642.82" y2="71.45" style="stroke:#000000;stroke-width:1.0;fill-rule: evenodd;" fill="none"/>
<line x1="642.82" y1="71.45" x2="644.68" y2="73.59" style="stroke:#000000;stroke-width:1.0;fill-rule: evenodd;" fill="none"/>
<line x1="644.68" y1="73.59" x2="646.48" y2="75.72" style="stroke:#000000;stroke-width:1.0;fill-rule: evenodd;" fill="none"/>
<line x1="646.48" y1="75.72" x2="648.25" y2="77.86" style="stroke:#000000;stroke-width:1.0;fill-rule: evenodd;" fill="none"/>
<line x1="648.25" y1="77.86" x2="650.0" y2="80.0" style="stroke:#000000;stroke-width:1.0;fill-rule: evenodd;" fill="none"/>
<polygon points="260.0,90.0 257.96,76.01 273.99,87.96" style="stroke:#000000;stroke-width:1.0;fill-rule: evenodd;" fill="#000000"/>
<g transform="translate(330.0,50.0) scale(1.4393939393939394,1) "><text x="0" y="12.0" font-family="Courier New" font-size="12.0" font-style="" font-weigth="" fill="#000000">modulate the supply</text>
</g>
</svg>